<?xml version="1.0" standalone="no"?>
<!DOCTYPE svg PUBLIC "-//W3C//DTD SVG 20010904//EN"
 "http://www.w3.org/TR/2001/REC-SVG-20010904/DTD/svg10.dtd">
<svg version="1.0" xmlns="http://www.w3.org/2000/svg"
 width="1024.000000pt" height="1024.000000pt" viewBox="0 0 1024.000000 1024.000000"
 preserveAspectRatio="xMidYMid meet">
<metadata>
Created by potrace 1.11, written by Peter Selinger 2001-2013
</metadata>
<g transform="translate(0.000000,1024.000000) scale(0.100000,-0.100000)"
fill="#000000" stroke="none">
<path d="M0 5120 l0 -5120 4427 0 4428 0 -916 918 c-611 611 -931 938 -959
981 -61 92 -116 215 -142 317 -29 116 -32 351 -5 458 75 299 293 560 566 676
310 132 660 98 946 -93 38 -25 399 -378 977 -956 l918 -916 0 4428 0 4427
-5120 0 -5120 0 0 -5120z"/>
</g>
</svg>
